<?xml version="1.0" encoding="UTF-8"?>
<svg xmlns="http://www.w3.org/2000/svg" version="1.1" width="400" height="400" viewBox="0 0 400 400"><rect x="0" y="0" width="400" height="400" fill="#ffffff"/><g transform="scale(9.756)"><g transform="translate(0,0)"><path fill-rule="evenodd" d="M8 0L8 1L9 1L9 2L8 2L8 3L9 3L9 4L8 4L8 5L10 5L10 8L11 8L11 9L9 9L9 10L6 10L6 11L5 11L5 10L4 10L4 9L2 9L2 10L1 10L1 9L0 9L0 13L1 13L1 14L0 14L0 16L3 16L3 15L4 15L4 18L2 18L2 17L1 17L1 19L2 19L2 20L0 20L0 22L2 22L2 23L0 23L0 26L1 26L1 27L2 27L2 26L1 26L1 25L4 25L4 26L5 26L5 27L4 27L4 28L2 28L2 30L1 30L1 29L0 29L0 33L1 33L1 31L2 31L2 30L3 30L3 31L4 31L4 33L5 33L5 32L6 32L6 33L7 33L7 32L6 32L6 31L9 31L9 32L10 32L10 29L8 29L8 28L9 28L9 27L10 27L10 28L11 28L11 29L12 29L12 30L11 30L11 31L12 31L12 32L11 32L11 33L12 33L12 34L10 34L10 33L8 33L8 34L10 34L10 37L9 37L9 39L10 39L10 37L12 37L12 36L11 36L11 35L13 35L13 34L14 34L14 36L13 36L13 38L11 38L11 40L9 40L9 41L12 41L12 40L13 40L13 41L14 41L14 40L15 40L15 38L17 38L17 36L18 36L18 35L20 35L20 34L22 34L22 33L23 33L23 32L24 32L24 34L23 34L23 35L22 35L22 36L24 36L24 37L23 37L23 39L22 39L22 38L21 38L21 37L20 37L20 36L19 36L19 38L18 38L18 39L16 39L16 41L17 41L17 40L19 40L19 41L20 41L20 39L22 39L22 40L23 40L23 41L25 41L25 40L26 40L26 41L28 41L28 40L29 40L29 41L30 41L30 40L31 40L31 41L32 41L32 40L31 40L31 39L30 39L30 40L29 40L29 38L28 38L28 37L26 37L26 36L27 36L27 35L29 35L29 33L30 33L30 32L29 32L29 30L30 30L30 31L32 31L32 32L31 32L31 33L32 33L32 34L30 34L30 35L31 35L31 36L29 36L29 37L31 37L31 38L32 38L32 37L35 37L35 38L33 38L33 41L37 41L37 40L38 40L38 41L39 41L39 39L40 39L40 40L41 40L41 39L40 39L40 38L41 38L41 35L40 35L40 36L39 36L39 37L37 37L37 36L38 36L38 34L39 34L39 33L40 33L40 32L38 32L38 31L37 31L37 29L38 29L38 30L39 30L39 29L40 29L40 31L41 31L41 27L40 27L40 28L39 28L39 27L37 27L37 26L38 26L38 24L37 24L37 25L36 25L36 24L34 24L34 27L33 27L33 24L31 24L31 26L32 26L32 27L31 27L31 28L29 28L29 29L28 29L28 31L27 31L27 28L28 28L28 27L30 27L30 25L28 25L28 24L29 24L29 23L31 23L31 22L32 22L32 23L33 23L33 22L32 22L32 20L33 20L33 21L34 21L34 20L35 20L35 22L36 22L36 23L38 23L38 21L39 21L39 20L40 20L40 21L41 21L41 15L40 15L40 16L39 16L39 13L40 13L40 14L41 14L41 12L40 12L40 11L39 11L39 13L36 13L36 11L37 11L37 12L38 12L38 11L37 11L37 8L36 8L36 9L35 9L35 8L34 8L34 9L35 9L35 12L34 12L34 14L33 14L33 11L32 11L32 12L30 12L30 13L29 13L29 14L26 14L26 15L25 15L25 13L28 13L28 9L27 9L27 8L29 8L29 9L30 9L30 10L29 10L29 11L31 11L31 10L32 10L32 9L30 9L30 8L29 8L29 6L30 6L30 7L31 7L31 8L32 8L32 7L33 7L33 6L32 6L32 7L31 7L31 6L30 6L30 4L31 4L31 5L33 5L33 0L32 0L32 2L31 2L31 0L29 0L29 1L28 1L28 2L29 2L29 1L30 1L30 2L31 2L31 3L30 3L30 4L28 4L28 3L27 3L27 4L28 4L28 7L27 7L27 6L26 6L26 7L27 7L27 8L25 8L25 10L24 10L24 9L23 9L23 8L22 8L22 9L21 9L21 6L22 6L22 7L23 7L23 6L24 6L24 7L25 7L25 5L26 5L26 4L25 4L25 3L26 3L26 2L27 2L27 0L26 0L26 1L25 1L25 0L23 0L23 1L22 1L22 0L15 0L15 2L14 2L14 0L11 0L11 2L10 2L10 0ZM12 1L12 3L13 3L13 4L12 4L12 6L11 6L11 8L12 8L12 9L11 9L11 10L10 10L10 11L11 11L11 12L10 12L10 14L9 14L9 12L7 12L7 11L6 11L6 12L7 12L7 13L6 13L6 14L9 14L9 15L8 15L8 16L7 16L7 15L5 15L5 14L4 14L4 13L2 13L2 11L4 11L4 12L5 12L5 11L4 11L4 10L2 10L2 11L1 11L1 13L2 13L2 14L4 14L4 15L5 15L5 16L7 16L7 17L6 17L6 18L5 18L5 19L6 19L6 20L7 20L7 21L3 21L3 20L4 20L4 19L3 19L3 20L2 20L2 21L3 21L3 22L5 22L5 24L7 24L7 25L5 25L5 26L7 26L7 27L6 27L6 28L5 28L5 29L4 29L4 30L8 30L8 29L6 29L6 28L8 28L8 27L9 27L9 25L10 25L10 27L11 27L11 25L10 25L10 24L12 24L12 23L14 23L14 22L16 22L16 24L14 24L14 25L15 25L15 26L12 26L12 27L14 27L14 29L13 29L13 30L12 30L12 31L14 31L14 29L15 29L15 31L18 31L18 32L17 32L17 34L16 34L16 32L15 32L15 34L16 34L16 35L15 35L15 36L14 36L14 38L15 38L15 37L16 37L16 35L18 35L18 34L20 34L20 32L19 32L19 29L20 29L20 30L22 30L22 31L21 31L21 33L22 33L22 31L23 31L23 30L24 30L24 31L26 31L26 32L25 32L25 34L24 34L24 36L25 36L25 35L26 35L26 34L27 34L27 33L29 33L29 32L27 32L27 31L26 31L26 29L24 29L24 28L21 28L21 25L23 25L23 27L25 27L25 28L27 28L27 27L25 27L25 25L24 25L24 24L25 24L25 23L27 23L27 22L26 22L26 21L29 21L29 22L30 22L30 21L31 21L31 20L28 20L28 19L31 19L31 18L28 18L28 19L27 19L27 20L26 20L26 19L25 19L25 17L26 17L26 18L27 18L27 16L28 16L28 17L29 17L29 16L30 16L30 17L31 17L31 14L32 14L32 17L33 17L33 19L34 19L34 17L35 17L35 18L36 18L36 17L37 17L37 19L38 19L38 20L36 20L36 19L35 19L35 20L36 20L36 21L38 21L38 20L39 20L39 19L40 19L40 17L39 17L39 19L38 19L38 16L37 16L37 14L35 14L35 15L33 15L33 14L32 14L32 13L31 13L31 14L29 14L29 16L28 16L28 15L27 15L27 16L25 16L25 15L22 15L22 13L21 13L21 15L22 15L22 16L23 16L23 17L22 17L22 18L20 18L20 16L19 16L19 15L20 15L20 12L22 12L22 11L23 11L23 14L24 14L24 12L27 12L27 11L24 11L24 10L20 10L20 6L21 6L21 4L22 4L22 6L23 6L23 4L22 4L22 3L23 3L23 2L22 2L22 3L21 3L21 1L19 1L19 2L18 2L18 1L17 1L17 2L16 2L16 3L17 3L17 4L16 4L16 5L15 5L15 7L16 7L16 9L15 9L15 8L14 8L14 6L13 6L13 4L14 4L14 3L13 3L13 1ZM24 1L24 2L25 2L25 1ZM9 2L9 3L10 3L10 2ZM18 3L18 5L17 5L17 6L16 6L16 7L17 7L17 9L18 9L18 11L17 11L17 10L15 10L15 9L14 9L14 10L11 10L11 11L12 11L12 12L13 12L13 11L14 11L14 13L13 13L13 14L14 14L14 15L13 15L13 16L14 16L14 15L15 15L15 17L10 17L10 16L12 16L12 13L11 13L11 15L10 15L10 16L8 16L8 17L7 17L7 18L6 18L6 19L8 19L8 21L7 21L7 22L6 22L6 23L7 23L7 22L8 22L8 21L9 21L9 20L10 20L10 22L9 22L9 23L12 23L12 20L11 20L11 18L13 18L13 19L14 19L14 20L15 20L15 21L18 21L18 23L17 23L17 24L16 24L16 26L15 26L15 28L16 28L16 29L17 29L17 30L18 30L18 29L19 29L19 28L17 28L17 27L16 27L16 26L17 26L17 24L18 24L18 25L21 25L21 24L22 24L22 22L21 22L21 21L23 21L23 22L24 22L24 23L23 23L23 24L24 24L24 23L25 23L25 22L24 22L24 21L23 21L23 20L22 20L22 19L24 19L24 20L25 20L25 21L26 21L26 20L25 20L25 19L24 19L24 17L25 17L25 16L24 16L24 17L23 17L23 18L22 18L22 19L21 19L21 20L19 20L19 16L18 16L18 15L19 15L19 14L17 14L17 16L16 16L16 13L15 13L15 11L17 11L17 13L19 13L19 12L20 12L20 11L19 11L19 6L20 6L20 5L19 5L19 3ZM20 3L20 4L21 4L21 3ZM31 3L31 4L32 4L32 3ZM10 4L10 5L11 5L11 4ZM18 5L18 6L17 6L17 7L18 7L18 6L19 6L19 5ZM8 6L8 8L9 8L9 6ZM12 6L12 8L13 8L13 6ZM5 8L5 9L7 9L7 8ZM38 8L38 9L39 9L39 8ZM40 8L40 9L41 9L41 8ZM26 9L26 10L27 10L27 9ZM14 10L14 11L15 11L15 10ZM18 11L18 12L19 12L19 11ZM14 13L14 14L15 14L15 13ZM35 15L35 17L36 17L36 15ZM17 16L17 19L18 19L18 16ZM33 16L33 17L34 17L34 16ZM15 17L15 18L14 18L14 19L15 19L15 20L16 20L16 19L15 19L15 18L16 18L16 17ZM9 18L9 19L10 19L10 18ZM18 20L18 21L19 21L19 24L21 24L21 22L20 22L20 21L19 21L19 20ZM13 21L13 22L14 22L14 21ZM3 23L3 24L4 24L4 23ZM39 23L39 25L40 25L40 26L41 26L41 23ZM26 24L26 25L27 25L27 24ZM7 25L7 26L8 26L8 25ZM35 25L35 26L36 26L36 25ZM32 27L32 29L30 29L30 30L33 30L33 31L35 31L35 32L37 32L37 33L38 33L38 32L37 32L37 31L36 31L36 30L34 30L34 29L37 29L37 28L33 28L33 27ZM20 28L20 29L21 29L21 28ZM12 32L12 33L14 33L14 32ZM18 32L18 33L19 33L19 32ZM33 33L33 36L36 36L36 33ZM34 34L34 35L35 35L35 34ZM8 35L8 36L9 36L9 35ZM24 37L24 39L23 39L23 40L24 40L24 39L25 39L25 37ZM36 37L36 38L37 38L37 39L38 39L38 38L37 38L37 37ZM19 38L19 39L20 39L20 38ZM26 38L26 39L27 39L27 38ZM13 39L13 40L14 40L14 39ZM34 39L34 40L36 40L36 39ZM0 0L0 7L7 7L7 0ZM1 1L1 6L6 6L6 1ZM2 2L2 5L5 5L5 2ZM34 0L34 7L41 7L41 0ZM35 1L35 6L40 6L40 1ZM36 2L36 5L39 5L39 2ZM0 34L0 41L7 41L7 34ZM1 35L1 40L6 40L6 35ZM2 36L2 39L5 39L5 36Z" fill="#000000"/></g></g></svg>
